<?xml version="1.0" encoding="utf-8"?>
<!-- Generator: Adobe Illustrator 26.0.3, SVG Export Plug-In . SVG Version: 6.00 Build 0)  -->
<svg version="1.1" id="Ebene_1" xmlns="http://www.w3.org/2000/svg" xmlns:xlink="http://www.w3.org/1999/xlink" x="0px" y="0px"
	 viewBox="0 0 532.2 343.4" style="enable-background:new 0 0 532.2 343.4;" xml:space="preserve">
<style type="text/css">
	.st0{fill:#9AC437;}
	.st1{fill:#7C7C7B;}
</style>
<path class="st0" d="M40.3,0C14,36.8-0.1,80.9,0,126.1c0,120,97.3,217.3,217.3,217.3c91.5,0,169.7-56.5,201.8-136.6
	c-40.7,57.3-106.7,91.3-177,91.2C122,298,24.8,200.8,24.8,80.8C24.7,53.1,30,25.7,40.3,0L40.3,0z"/>
<path class="st1" d="M529.4,168.5c-0.8,2.8-2.5,7.5-5.8,7.5c-3.5,0-3.5-2.6-3.5-7.6v-39.5c0-6.6,0-16.3-22.6-16.3
	c-19.8,0-26.6,10-26.6,15.9c0,4.6,2.5,8,7,8c4.2,0,6.8-2.8,6.8-7c0-5.5-5-6.3-5-7.6c0-4.8,11.8-6,15.4-6c5.8,0,12,2.3,12,10.1v15.8
	c-25.4,0-41.2,8.6-41.7,24.1c0,12.3,9,16.3,19.4,16.3c8.5,0,16.8-3.1,22.4-10.1c1.1,6.1,4.7,10.1,10.8,10.1
	c7.6,0,13.6-5.8,14.1-13.6L529.4,168.5z M507.2,160.7c0,7-2.3,8.8-3.7,10.1c-3.4,3.3-8,5-12.8,4.8c-7.6,0-12.8-5-12.8-13.1
	c0-15.3,18.4-17.1,29.2-17.3L507.2,160.7L507.2,160.7z"/>
<polygon class="st0" points="402.9,118.1 425.1,182.1 430.8,182.1 453.7,118.1 461.6,118.1 461.6,114.2 439.1,114.2 439.1,118.1 
	449.2,118.1 432.4,165.7 432.1,165.7 416,118.1 424.8,118.1 424.8,114.2 394.9,114.2 394.9,118.1 402.9,118.1 "/>
<path class="st1" d="M172.8,168.5c-0.8,2.8-2.5,7.5-5.8,7.5c-3.5,0-3.5-2.6-3.5-7.6v-39.5c0-6.6,0-16.3-22.6-16.3
	c-19.8,0-26.6,10-26.6,15.9c0,4.6,2.5,8,7,8c4.1,0,6.8-2.8,6.8-7c0-5.5-5-6.3-5-7.6c0-4.8,11.8-6,15.4-6c5.8,0,12,2.3,12,10.1v15.8
	c-25.4,0-41.2,8.6-41.7,24.1c0,12.3,9,16.3,19.4,16.3c8.5,0,16.8-3.1,22.4-10.1c1.1,6.1,4.6,10.1,10.7,10.1
	c7.6,0,13.6-5.8,14.1-13.6L172.8,168.5z M150.6,160.7c0,7-2.3,8.8-3.6,10.1c-3.4,3.3-8,5-12.8,4.8c-7.6,0-12.8-5-12.8-13.1
	c0-15.3,18.4-17.1,29.2-17.3L150.6,160.7L150.6,160.7z M239.2,159.4c-2.3,11-13.4,19.3-22.9,19.3c-18.1,0-20.3-13.3-20.3-29.7v-6.8
	h47c-0.2-18.1-13-29.5-29.9-29.5c-19.8,0-32.7,17.9-32.7,37.5c0,18.4,16.3,32,33.2,32c14.6,0,25.9-7.3,29.2-22.7L239.2,159.4z
	 M196.2,137.3c0.1-3.7,0.6-7.4,1.7-11c0.3-1.2,4.8-10.5,14.8-10.5c8.3,0,15.3,3.8,15.3,15.8v5.6H196.2z M258.8,176.2h-9.1v3.8h31
	v-3.8h-9v-30.9c0-12.5,8.6-27.9,19.9-27.9c6.6,0,10.5,1.8,10.5,14v44.8h-8.5v3.8H324v-3.8h-9v-47c0-15.3-13.8-16.6-19.8-16.6
	c-12.1,0-18.6,7.1-23.2,17.6h-0.3v-17.6c-3.1,0.7-6.2,1.1-9.3,1.3c-3.1,0.3-6.2,0.4-9.3,0.3h-3.5v3.8h9.1L258.8,176.2L258.8,176.2z
	 M361,112.6c-17.4,0-32,14.6-32,34.7s14.5,34.8,32,34.8s32-14.8,32-34.9S378.4,112.6,361,112.6L361,112.6z M361,115.9
	c16.8,0,16.9,17.6,16.9,31.4c0,14-0.2,31.5-16.9,31.5s-17-17.6-17-31.5C344,133.5,344.2,115.9,361,115.9L361,115.9z"/>
</svg>
